<svg width="42" height="21" viewBox="0 0 42 21" fill="none" xmlns="http://www.w3.org/2000/svg">
<path fill-rule="evenodd" clip-rule="evenodd" d="M1.30626 6.48898C2.09232 4.63643 3.39819 3.06438 5.0445 1.95163C5.86372 1.3986 6.77016 0.958695 7.74298 0.658722C8.70928 0.35223 9.74189 0.192186 10.8077 0.192186C12.1742 0.192186 13.4867 0.459008 14.6859 0.94574C14.7862 0.985329 14.8792 1.02508 14.9722 1.07191C16.0517 1.54496 17.0381 2.21129 17.8841 3.00444C18.1573 3.2641 18.417 3.53736 18.6773 3.84385C19.1367 4.37025 19.6097 4.97672 20.0697 5.58962C20.1085 5.64219 20.1486 5.69602 20.1888 5.75012C20.2451 5.82585 20.3018 5.90211 20.356 5.97617C20.6092 6.32233 23.0284 9.8673 23.4547 10.5004C23.6246 10.7548 23.8198 11.0349 24.0303 11.3369L24.0303 11.337L24.1945 11.5728C24.2544 11.6593 24.3207 11.753 24.3871 11.846C24.8406 12.4922 25.3469 13.1722 25.8134 13.7721C26.0464 14.0714 26.2799 14.3512 26.4797 14.5848C26.686 14.8243 26.8727 15.0175 27.0061 15.1444C27.5787 15.6838 28.2522 16.1237 28.9914 16.4237C29.7312 16.7236 30.5374 16.8902 31.3905 16.8902C31.9768 16.8902 32.5429 16.8101 33.0758 16.6637C33.349 16.5902 33.6159 16.4971 33.8755 16.3839C35.022 15.9037 36.0013 15.091 36.6878 14.0714C37.0339 13.5586 37.3073 12.999 37.494 12.3991C37.6736 11.7991 37.7802 11.1667 37.7802 10.5003C37.7802 9.61408 37.6 8.78118 37.2806 8.01459C36.7938 6.86877 35.9811 5.89603 34.9615 5.20298C34.4488 4.85618 33.8892 4.59 33.2893 4.40324C32.6899 4.21648 32.0569 4.11051 31.3905 4.11051C30.5374 4.11695 29.7312 4.27707 28.9914 4.5764C28.2521 4.88281 27.5787 5.3162 27.0061 5.85564C26.8727 5.98253 26.686 6.18224 26.4797 6.41583C26.1199 6.83554 25.6937 7.37498 25.2668 7.94177L25.2668 7.94182L25.2113 8.01728C25.0347 8.61405 24.4824 9.04946 23.8284 9.04946C23.032 9.04946 22.3865 8.40388 22.3865 7.60753V2.04578C22.3865 1.24943 23.032 0.603851 23.8284 0.603851C24.6247 0.603851 25.2703 1.24943 25.2703 2.04578V2.20549C25.9573 1.69811 26.7108 1.27211 27.5124 0.945419C28.7117 0.458686 30.0247 0.191864 31.3905 0.191864C32.8097 0.191864 34.169 0.478802 35.4079 1.0052C37.2604 1.78475 38.8266 3.0907 39.9394 4.73629C40.4924 5.55623 40.9317 6.46846 41.2382 7.43476C41.538 8.40783 41.6981 9.434 41.6981 10.5005C41.6981 11.9196 41.4118 13.2789 40.8918 14.5113C40.1058 16.3704 38.7999 17.9367 37.1607 19.0493C36.3344 19.6024 35.4279 20.0416 34.4552 20.3481C33.489 20.6481 32.4563 20.8081 31.3904 20.8081C30.0246 20.8081 28.7115 20.5413 27.5123 20.0553C26.3195 19.5686 25.2401 18.8625 24.3206 18.003L24.3142 17.9964C24.0408 17.7433 23.7877 17.4629 23.521 17.1564C23.0616 16.63 22.5885 16.0242 22.1285 15.4112C22.0806 15.3458 22.0308 15.2805 21.981 15.2152C21.9341 15.1538 21.8873 15.0924 21.8422 15.0311C21.6837 14.8099 20.3252 12.8217 19.2651 11.2702L19.2651 11.2702C18.6326 10.3445 18.1063 9.57425 18.0044 9.4274C17.9615 9.36603 17.9156 9.30142 17.869 9.23565L17.8112 9.15414C17.3576 8.51444 16.8514 7.82807 16.3848 7.22877C16.1519 6.9288 15.9183 6.64894 15.7185 6.41599C15.5122 6.17589 15.3254 5.98261 15.1921 5.8558C14.6195 5.31636 13.946 4.88297 13.2068 4.57656C13.0266 4.50366 12.847 4.44388 12.6603 4.38329C12.074 4.21029 11.4546 4.11719 10.8077 4.11067C9.92157 4.11711 9.08208 4.29027 8.32281 4.61688C7.17691 5.09645 6.19692 5.90914 5.51112 6.9288C5.16432 7.44216 4.89106 8.0018 4.70494 8.60102C4.51818 9.20097 4.418 9.83407 4.418 10.5004C4.418 11.3866 4.59825 12.2261 4.91769 12.9854C5.40442 14.1312 6.21712 15.1112 7.23677 15.797C7.7495 16.1438 8.30905 16.4172 8.909 16.5968C9.50178 16.7835 10.1414 16.8903 10.8077 16.8903C11.6608 16.8903 12.4671 16.7237 13.2069 16.4238C13.9461 16.1238 14.6196 15.6839 15.1922 15.1444C15.3256 15.0175 15.5124 14.8178 15.7186 14.5849C16.0784 14.1717 16.5052 13.6251 16.9315 13.059C17.0989 12.8399 17.2603 12.6141 17.4215 12.3887L17.4377 12.366L17.4449 12.3768C17.453 12.3889 17.461 12.4009 17.4691 12.413C17.7319 12.0594 18.1528 11.8303 18.6272 11.8303C19.4235 11.8303 20.0691 12.4759 20.0691 13.2723V18.834C20.0691 19.6304 19.4235 20.2759 18.6272 20.2759C17.8308 20.2759 17.1853 19.6304 17.1853 18.834V18.5986C16.4306 19.1927 15.5889 19.6868 14.686 20.0553C13.4867 20.5413 12.1743 20.8081 10.8078 20.8081C9.38873 20.8081 8.02935 20.5218 6.79695 20.0019C4.93797 19.2159 3.37236 17.9099 2.25905 16.2637C1.70657 15.4445 1.25959 14.5381 0.96026 13.5652C0.660125 12.5989 0.5 11.5663 0.5 10.5005C0.5 9.08132 0.786294 7.72202 1.30626 6.48898Z" fill="white"/>
</svg>
