<svg xmlns="http://www.w3.org/2000/svg" width="24" height="24" viewBox="0 0 24 24" fill="#363538">
<path opacity="0.4" fill-rule="evenodd" clip-rule="evenodd" d="M21.75 12C21.75 11.5858 21.4142 11.25 21 11.25H11C10.5858 11.25 10.25 11.5858 10.25 12C10.25 12.4142 10.5858 12.75 11 12.75H21C21.4142 12.75 21.75 12.4142 21.75 12Z" fill="#363538"/>
<path fill-rule="evenodd" clip-rule="evenodd" d="M21.75 5.00043C21.75 4.58621 21.4142 4.25043 21 4.25043H3C2.58579 4.25043 2.25 4.58621 2.25 5.00043C2.25 5.41464 2.58579 5.75043 3 5.75043H21C21.4142 5.75043 21.75 5.41464 21.75 5.00043Z" fill="#363538"/>
<path fill-rule="evenodd" clip-rule="evenodd" d="M21.75 19.0004C21.75 18.5862 21.4142 18.2504 21 18.2504H17C16.5858 18.2504 16.25 18.5862 16.25 19.0004C16.25 19.4146 16.5858 19.7504 17 19.7504H21C21.4142 19.7504 21.75 19.4146 21.75 19.0004Z" fill="#363538"/>
</svg>