<svg width="39" height="29" viewBox="0 0 39 29" fill="none" xmlns="http://www.w3.org/2000/svg">
<path d="M32.5254 2.54999C30.1425 1.43916 27.5625 0.632908 24.875 0.167075C24.8514 0.166321 24.828 0.170743 24.8063 0.18003C24.7847 0.189316 24.7653 0.203242 24.7496 0.220825C24.4271 0.812075 24.0508 1.58249 23.8 2.17374C20.9495 1.74374 18.0505 1.74374 15.2 2.17374C14.9492 1.56457 14.5729 0.812075 14.2325 0.220825C14.2146 0.184992 14.1608 0.167075 14.1071 0.167075C11.4196 0.632908 8.85751 1.43916 6.45667 2.54999C6.43876 2.54999 6.42084 2.56791 6.40292 2.58582C1.52959 9.87791 0.18584 16.9729 0.848757 23.9962C0.848757 24.0321 0.866673 24.0679 0.902507 24.0858C4.12751 26.4508 7.22709 27.8842 10.2908 28.8337C10.3446 28.8517 10.3983 28.8337 10.4163 28.7979C11.1329 27.8125 11.7779 26.7733 12.3333 25.6804C12.3692 25.6087 12.3333 25.5371 12.2617 25.5192C11.2404 25.125 10.2729 24.6592 9.32334 24.1217C9.25167 24.0858 9.25167 23.9783 9.30542 23.9246C9.50251 23.7812 9.69959 23.62 9.89667 23.4767C9.93251 23.4408 9.98626 23.4408 10.0221 23.4587C16.1854 26.2717 22.8325 26.2717 28.9242 23.4587C28.96 23.4408 29.0138 23.4408 29.0496 23.4767C29.2467 23.6379 29.4438 23.7812 29.6408 23.9425C29.7125 23.9962 29.7125 24.1037 29.6229 24.1396C28.6913 24.695 27.7058 25.1429 26.6846 25.5371C26.6129 25.555 26.595 25.6446 26.6129 25.6983C27.1863 26.7912 27.8313 27.8304 28.53 28.8158C28.5838 28.8337 28.6375 28.8517 28.6913 28.8337C31.7729 27.8842 34.8725 26.4508 38.0975 24.0858C38.1333 24.0679 38.1513 24.0321 38.1513 23.9962C38.9396 15.88 36.8433 8.83874 32.5971 2.58582C32.5792 2.56791 32.5613 2.54999 32.5254 2.54999ZM13.265 19.7142C11.4196 19.7142 9.87876 18.0121 9.87876 15.9158C9.87876 13.8196 11.3838 12.1175 13.265 12.1175C15.1642 12.1175 16.6692 13.8375 16.6513 15.9158C16.6513 18.0121 15.1463 19.7142 13.265 19.7142ZM25.7529 19.7142C23.9075 19.7142 22.3667 18.0121 22.3667 15.9158C22.3667 13.8196 23.8717 12.1175 25.7529 12.1175C27.6521 12.1175 29.1571 13.8375 29.1392 15.9158C29.1392 18.0121 27.6521 19.7142 25.7529 19.7142Z" fill="white"/>
</svg>
