<svg width="39" height="31" viewBox="0 0 39 31" fill="none" xmlns="http://www.w3.org/2000/svg">
<path d="M38.2408 3.75033C36.8612 4.37741 35.3741 4.78949 33.8333 4.98658C35.41 4.03699 36.6283 2.53199 37.2017 0.722409C35.7146 1.61824 34.0662 2.24533 32.3283 2.60366C30.9129 1.06283 28.9242 0.166992 26.6667 0.166992C22.4562 0.166992 19.0162 3.60699 19.0162 7.85324C19.0162 8.46241 19.0879 9.05366 19.2133 9.60908C12.835 9.28658 7.1554 6.22283 3.37499 1.58241C2.71207 2.71116 2.33582 4.03699 2.33582 5.43449C2.33582 8.10408 3.67957 10.4691 5.7579 11.8128C4.48582 11.8128 3.30332 11.4545 2.26416 10.917V10.9707C2.26416 14.6974 4.91582 17.8149 8.42749 18.5137C7.30004 18.8222 6.11641 18.8651 4.96957 18.6391C5.4562 20.1664 6.40924 21.5029 7.69473 22.4606C8.98021 23.4183 10.5335 23.949 12.1362 23.9782C9.41941 26.129 6.05173 27.2916 2.58666 27.2749C1.97749 27.2749 1.36832 27.2391 0.759155 27.1674C4.16332 29.3532 8.21249 30.6253 12.5483 30.6253C26.6667 30.6253 34.4246 18.9078 34.4246 8.74908C34.4246 8.40866 34.4246 8.08616 34.4067 7.74574C35.9117 6.67074 37.2016 5.30908 38.2408 3.75033Z" fill="white"/>
</svg>
